<svg id="Layer_1" data-name="Layer 1" xmlns="http://www.w3.org/2000/svg" viewBox="0 0 414 60"><defs><style>.cls-1{fill:#4060a9;}.cls-2{fill:#0ea190;}.cls-3{fill:#4d2b74;}.cls-4{fill:#404041;}</style></defs><title>logo_website_without_shd</title><path class="cls-1" d="M60,60H0V0H60ZM2.47,57.53H57.53V2.47H2.47Z"/><path class="cls-2" d="M47.83,38.11H32V35.58H47.83a2.23,2.23,0,0,0,2.23-2.23v-.42a1.66,1.66,0,0,0-1.66-1.67H40.65a4.76,4.76,0,0,1-4.76-4.76v-.42a4.2,4.2,0,0,1,4.19-4.19H52.59v2.52H40.08a1.67,1.67,0,0,0-1.67,1.67v.42a2.25,2.25,0,0,0,2.24,2.24H48.4a4.2,4.2,0,0,1,4.19,4.19v.42A4.77,4.77,0,0,1,47.83,38.11Z"/><path class="cls-1" d="M32,38.11h-11V35.58H32A4.6,4.6,0,0,0,36.54,31v-.85a5.74,5.74,0,0,0-5.73-5.73H20.93V21.89h9.88a8.26,8.26,0,0,1,8.26,8.25V31A7.13,7.13,0,0,1,32,38.11Z"/><path class="cls-3" d="M23.46,38.11H20.93V25.6a1.67,1.67,0,0,0-1.66-1.67h-.43a2.24,2.24,0,0,0-2.23,2.24V38.11H14.08V26.17a4.76,4.76,0,0,1,4.76-4.76h.43a4.2,4.2,0,0,1,4.19,4.19Z"/><path class="cls-3" d="M16.61,38.11H14.08V25.6a1.66,1.66,0,0,0-1.66-1.67H12a2.24,2.24,0,0,0-2.24,2.24V38.11H7.24V26.17A4.76,4.76,0,0,1,12,21.41h.42a4.2,4.2,0,0,1,4.19,4.19Z"/><path class="cls-1" d="M33.27,27.6H25.22a.35.35,0,0,1-.35-.35.34.34,0,0,1,.35-.35h8.05a.35.35,0,0,1,.35.35A.35.35,0,0,1,33.27,27.6Z"/><path class="cls-1" d="M33.27,32.62H25.22a.36.36,0,0,1,0-.71h8.05a.36.36,0,0,1,0,.71Z"/><path class="cls-1" d="M33.27,30.11H25.22a.35.35,0,0,1-.35-.35.34.34,0,0,1,.35-.35h8.05a.35.35,0,0,1,.35.35A.35.35,0,0,1,33.27,30.11Z"/><path class="cls-4" d="M86.55,23.83l0-12.51-6.2,10.42H79.19L73,11.39V23.83H70.62V6.65h2L79.8,18.72,86.87,6.65h2l0,17.18Z"/><path class="cls-4" d="M95.82,22.06a7.74,7.74,0,0,1-1.91-5.64V6.65h2.45v9.67q0,5.52,4.83,5.52a4.65,4.65,0,0,0,3.61-1.36,6,6,0,0,0,1.25-4.16V6.65h2.38v9.77a7.76,7.76,0,0,1-1.91,5.65,8.3,8.3,0,0,1-10.7,0Z"/><path class="cls-4" d="M125.36,15.14h2.35v6.7a9.32,9.32,0,0,1-3,1.62,11,11,0,0,1-3.54.56,9.59,9.59,0,0,1-4.68-1.14,8.4,8.4,0,0,1-3.28-3.14,8.65,8.65,0,0,1-1.19-4.5,8.71,8.71,0,0,1,1.19-4.51,8.29,8.29,0,0,1,3.29-3.14,9.72,9.72,0,0,1,4.72-1.13,9.92,9.92,0,0,1,3.74.67,7.59,7.59,0,0,1,2.86,2l-1.52,1.52a6.88,6.88,0,0,0-5-2,7.19,7.19,0,0,0-3.52.85,6.2,6.2,0,0,0-2.44,2.35,6.6,6.6,0,0,0-.88,3.4,6.52,6.52,0,0,0,.88,3.37A6.25,6.25,0,0,0,117.84,21a7.15,7.15,0,0,0,3.5.86,7.34,7.34,0,0,0,4-1.1Z"/><path class="cls-4" d="M143.34,19.53h-9.12l-1.89,4.3H129.8l7.78-17.18H140l7.8,17.18h-2.58Zm-.86-2-3.7-8.41-3.71,8.41Z"/><path class="cls-4" d="M150.36,6.65h2.45v15h9.3v2.14H150.36Z"/><path class="cls-4" d="M164.93,6.65h2.46V23.83h-2.46Z"/><path class="cls-4" d="M188.46,23.83l0-12.51-6.21,10.42H181.1l-6.21-10.35V23.83h-2.35V6.65h2l7.16,12.07,7.07-12.07h2l0,17.18Z"/><path class="cls-4" d="M202.57,6.65h7.23a10.48,10.48,0,0,1,4.84,1.08,7.92,7.92,0,0,1,3.27,3,8.55,8.55,0,0,1,1.17,4.48,8.53,8.53,0,0,1-1.17,4.48,7.92,7.92,0,0,1-3.27,3,10.48,10.48,0,0,1-4.84,1.08h-7.23Zm7.09,15a8,8,0,0,0,3.67-.81,5.88,5.88,0,0,0,2.44-2.27,6.52,6.52,0,0,0,.86-3.37,6.52,6.52,0,0,0-.86-3.37,5.88,5.88,0,0,0-2.44-2.27,8,8,0,0,0-3.67-.81H205v12.9Z"/><path class="cls-4" d="M235.3,21.69v2.14H222.83V6.65H235V8.79h-9.66v5.27h8.61v2.09h-8.61v5.54Z"/><path class="cls-4" d="M253.94,6.65l-7.53,17.18H244L236.42,6.65h2.65l6.19,14.11,6.23-14.11Z"/><path class="cls-4" d="M268.59,21.69v2.14H256.13V6.65h12.12V8.79h-9.67v5.27h8.61v2.09h-8.61v5.54Z"/><path class="cls-4" d="M272.56,6.65H275v15h9.29v2.14H272.56Z"/><path class="cls-4" d="M289.88,22.88a8.4,8.4,0,0,1-3.27-3.15,8.69,8.69,0,0,1-1.19-4.49,8.69,8.69,0,0,1,1.19-4.49,8.4,8.4,0,0,1,3.27-3.15,10.16,10.16,0,0,1,9.35,0,8.35,8.35,0,0,1,3.26,3.14,8.64,8.64,0,0,1,1.18,4.5,8.64,8.64,0,0,1-1.18,4.5,8.28,8.28,0,0,1-3.26,3.14,10.16,10.16,0,0,1-9.35,0ZM298,21a6.3,6.3,0,0,0,2.38-2.37,6.61,6.61,0,0,0,.87-3.37,6.61,6.61,0,0,0-.87-3.37A6.3,6.3,0,0,0,298,9.5a6.79,6.79,0,0,0-3.4-.86,6.89,6.89,0,0,0-3.42.86,6.24,6.24,0,0,0-2.41,2.37,6.61,6.61,0,0,0-.87,3.37,6.61,6.61,0,0,0,.87,3.37A6.24,6.24,0,0,0,291.15,21a6.89,6.89,0,0,0,3.42.86A6.79,6.79,0,0,0,298,21Z"/><path class="cls-4" d="M319.37,8.25a5.4,5.4,0,0,1,1.92,4.39A5.4,5.4,0,0,1,319.37,17a7.9,7.9,0,0,1-5.25,1.6h-4.24v5.2h-2.45V6.65h6.69A8,8,0,0,1,319.37,8.25Zm-1.76,7.25a3.46,3.46,0,0,0,1.22-2.86,3.46,3.46,0,0,0-1.22-2.86,5.57,5.57,0,0,0-3.56-1h-4.17v7.7h4.17A5.57,5.57,0,0,0,317.61,15.5Z"/><path class="cls-4" d="M340.82,23.83l0-12.51-6.2,10.42h-1.13l-6.21-10.35V23.83h-2.36V6.65h2l7.16,12.07,7.07-12.07h2l0,17.18Z"/><path class="cls-4" d="M360.79,21.69v2.14H348.32V6.65h12.12V8.79h-9.66v5.27h8.61v2.09h-8.61v5.54Z"/><path class="cls-4" d="M379.53,6.65V23.83h-2L367.22,11V23.83h-2.46V6.65h2l10.31,12.81V6.65Z"/><path class="cls-4" d="M388.09,8.79h-5.88V6.65h14.2V8.79h-5.89v15h-2.43Z"/><path class="cls-4" d="M84.66,53.54l-2.28-2.28a8,8,0,0,1-5.74,2.2,8,8,0,0,1-3.1-.56,5,5,0,0,1-2.14-1.58A3.71,3.71,0,0,1,70.62,49a4.34,4.34,0,0,1,1-2.78,11.56,11.56,0,0,1,3.2-2.5,8.67,8.67,0,0,1-1.59-2,4.13,4.13,0,0,1-.47-1.89A3.46,3.46,0,0,1,74,37a5.09,5.09,0,0,1,3.37-1,4.78,4.78,0,0,1,3.12.95,3.24,3.24,0,0,1,1.15,2.63,3.55,3.55,0,0,1-.85,2.33A10.12,10.12,0,0,1,78,44l4.25,4.22a10.82,10.82,0,0,0,1-3.12l1.89.62a11.32,11.32,0,0,1-1.49,3.92L86,52ZM81,49.88,76.1,45a8.86,8.86,0,0,0-2.47,1.82,2.9,2.9,0,0,0-.7,1.9,2.35,2.35,0,0,0,1.07,2,4.66,4.66,0,0,0,2.78.76A5.75,5.75,0,0,0,81,49.88ZM75.57,38.24a1.91,1.91,0,0,0-.65,1.51A2.6,2.6,0,0,0,75.27,41a9.56,9.56,0,0,0,1.39,1.66A10.1,10.1,0,0,0,79,41.05a2.12,2.12,0,0,0,.65-1.5,1.71,1.71,0,0,0-.6-1.37,2.52,2.52,0,0,0-1.68-.52A2.63,2.63,0,0,0,75.57,38.24Z"/><path class="cls-4" d="M95.32,52.86a7.86,7.86,0,0,1-2.84-1.55l.91-1.92a7.54,7.54,0,0,0,2.52,1.44,9.16,9.16,0,0,0,3.15.55,5.73,5.73,0,0,0,3.19-.72,2.25,2.25,0,0,0,1-1.93,1.92,1.92,0,0,0-.57-1.44,3.9,3.9,0,0,0-1.43-.84,23.23,23.23,0,0,0-2.39-.66,25,25,0,0,1-3.13-.94,5.18,5.18,0,0,1-2-1.43,3.82,3.82,0,0,1-.85-2.61,4.42,4.42,0,0,1,.72-2.48,5,5,0,0,1,2.2-1.77,8.94,8.94,0,0,1,3.66-.66,11.63,11.63,0,0,1,3,.39A8,8,0,0,1,105,37.42l-.81,2a8.9,8.9,0,0,0-2.31-1,8.52,8.52,0,0,0-2.4-.36,5.35,5.35,0,0,0-3.13.76,2.34,2.34,0,0,0-1,2,1.88,1.88,0,0,0,.59,1.43,4.07,4.07,0,0,0,1.46.86,21.6,21.6,0,0,0,2.37.65,24.46,24.46,0,0,1,3.12.93,5.22,5.22,0,0,1,2,1.43,3.69,3.69,0,0,1,.85,2.57,4.42,4.42,0,0,1-.74,2.47,4.9,4.9,0,0,1-2.23,1.76,9.15,9.15,0,0,1-3.68.65A11.76,11.76,0,0,1,95.32,52.86Z"/><path class="cls-4" d="M112.32,52.32a8.32,8.32,0,0,1-3.25-3.14,9.17,9.17,0,0,1,0-9A8.35,8.35,0,0,1,112.33,37,9.57,9.57,0,0,1,117,35.9a9.72,9.72,0,0,1,3.68.67,7.56,7.56,0,0,1,2.85,2l-1.6,1.55a6.38,6.38,0,0,0-4.83-2,7,7,0,0,0-3.46.86,6.17,6.17,0,0,0-2.41,2.37,6.91,6.91,0,0,0,0,6.75,6.21,6.21,0,0,0,2.41,2.36,6.94,6.94,0,0,0,3.46.86,6.41,6.41,0,0,0,4.83-2.06l1.6,1.55a7.74,7.74,0,0,1-2.86,2,9.62,9.62,0,0,1-3.69.68A9.48,9.48,0,0,1,112.32,52.32Z"/><path class="cls-4" d="M141.8,36.09V53.27h-2.46V45.61h-9.86v7.66H127V36.09h2.45v7.39h9.86V36.09Z"/><path class="cls-4" d="M150,52.32a8.42,8.42,0,0,1-3.28-3.15,9.07,9.07,0,0,1,0-9A8.42,8.42,0,0,1,150,37a10.14,10.14,0,0,1,9.34,0,8.44,8.44,0,0,1,3.27,3.14,9.24,9.24,0,0,1,0,9,8.37,8.37,0,0,1-3.27,3.14,10.14,10.14,0,0,1-9.34,0Zm8.08-1.9a6.27,6.27,0,0,0,2.38-2.36,7,7,0,0,0,0-6.75,6.23,6.23,0,0,0-2.38-2.37,6.79,6.79,0,0,0-3.4-.86,6.89,6.89,0,0,0-3.42.86,6.24,6.24,0,0,0-2.41,2.37,7,7,0,0,0,0,6.75,6.28,6.28,0,0,0,2.41,2.36,6.79,6.79,0,0,0,3.42.86A6.69,6.69,0,0,0,158.1,50.42Z"/><path class="cls-4" d="M167.56,36.09H170v15h9.3v2.14H167.56Z"/><path class="cls-4" d="M193.15,49H184l-1.89,4.29H179.6l7.78-17.18h2.43l7.8,17.18H195Zm-.86-2-3.71-8.41L184.88,47Z"/><path class="cls-4" d="M211.64,53.27,207.94,48c-.46,0-.82,0-1.08,0h-4.24v5.23h-2.46V36.09h6.7a8,8,0,0,1,5.25,1.6A5.39,5.39,0,0,1,214,42.08a5.72,5.72,0,0,1-1,3.39,5.48,5.48,0,0,1-2.79,2l4.07,5.77ZM210.34,45a4,4,0,0,0,0-5.73,5.52,5.52,0,0,0-3.55-1h-4.17V46h4.17A5.46,5.46,0,0,0,210.34,45Z"/><path class="cls-4" d="M219.26,52.86a7.81,7.81,0,0,1-2.83-1.55l.91-1.92a7.49,7.49,0,0,0,2.51,1.44,9.16,9.16,0,0,0,3.15.55,5.68,5.68,0,0,0,3.19-.72,2.24,2.24,0,0,0,1.06-1.93,1.89,1.89,0,0,0-.58-1.44,3.85,3.85,0,0,0-1.42-.84,24,24,0,0,0-2.39-.66,24,24,0,0,1-3.13-.94,5.22,5.22,0,0,1-2-1.43,3.86,3.86,0,0,1-.84-2.61,4.42,4.42,0,0,1,.72-2.48,4.89,4.89,0,0,1,2.2-1.77,8.89,8.89,0,0,1,3.65-.66,11.63,11.63,0,0,1,3,.39,7.84,7.84,0,0,1,2.53,1.13l-.81,2a9,9,0,0,0-2.3-1,8.54,8.54,0,0,0-2.41-.36,5.37,5.37,0,0,0-3.13.76,2.36,2.36,0,0,0-1,2,1.88,1.88,0,0,0,.59,1.43,4,4,0,0,0,1.46.86,21.6,21.6,0,0,0,2.37.65,23.76,23.76,0,0,1,3.11.93,5.26,5.26,0,0,1,2,1.43,3.74,3.74,0,0,1,.84,2.57,4.41,4.41,0,0,1-.73,2.47,4.93,4.93,0,0,1-2.24,1.76,9.08,9.08,0,0,1-3.68.65A11.76,11.76,0,0,1,219.26,52.86Z"/><path class="cls-4" d="M248,36.09V53.27h-2.45V45.61h-9.86v7.66h-2.46V36.09h2.46v7.39h9.86V36.09Z"/><path class="cls-4" d="M253.16,36.09h2.45V53.27h-2.45Z"/><path class="cls-4" d="M272.71,37.69a5.39,5.39,0,0,1,1.91,4.39,5.38,5.38,0,0,1-1.91,4.39,7.93,7.93,0,0,1-5.25,1.6h-4.25v5.2h-2.45V36.09h6.7A8,8,0,0,1,272.71,37.69Zm-1.77,7.25a3.94,3.94,0,0,0,0-5.72,5.54,5.54,0,0,0-3.55-1h-4.18v7.7h4.18A5.54,5.54,0,0,0,270.94,44.94Z"/><path class="cls-4" d="M297,37.69a5.4,5.4,0,0,1,1.92,4.39A5.39,5.39,0,0,1,297,46.47a7.9,7.9,0,0,1-5.25,1.6h-4.24v5.2h-2.46V36.09h6.7A8,8,0,0,1,297,37.69Zm-1.76,7.25a4,4,0,0,0,0-5.72,5.57,5.57,0,0,0-3.56-1h-4.17v7.7h4.17A5.57,5.57,0,0,0,295.26,44.94Z"/><path class="cls-4" d="M314,53.27,310.32,48c-.46,0-.82,0-1.08,0H305v5.23h-2.46V36.09h6.7a8,8,0,0,1,5.25,1.6,5.39,5.39,0,0,1,1.91,4.39,5.72,5.72,0,0,1-1,3.39,5.48,5.48,0,0,1-2.79,2l4.07,5.77ZM312.72,45a4,4,0,0,0,0-5.73,5.52,5.52,0,0,0-3.55-1H305V46h4.17A5.46,5.46,0,0,0,312.72,45Z"/><path class="cls-4" d="M323.45,52.32a8.36,8.36,0,0,1-3.28-3.15,9.07,9.07,0,0,1,0-9A8.36,8.36,0,0,1,323.45,37a10.14,10.14,0,0,1,9.34,0,8.44,8.44,0,0,1,3.27,3.14,9.24,9.24,0,0,1,0,9,8.37,8.37,0,0,1-3.27,3.14,10.14,10.14,0,0,1-9.34,0Zm8.08-1.9a6.34,6.34,0,0,0,2.38-2.36,7,7,0,0,0,0-6.75,6.3,6.3,0,0,0-2.38-2.37,6.79,6.79,0,0,0-3.4-.86,6.89,6.89,0,0,0-3.42.86,6.24,6.24,0,0,0-2.41,2.37,7,7,0,0,0,0,6.75,6.28,6.28,0,0,0,2.41,2.36,6.79,6.79,0,0,0,3.42.86A6.69,6.69,0,0,0,331.53,50.42Z"/><path class="cls-4" d="M352.89,44.58h2.35v6.7a9.27,9.27,0,0,1-3,1.62,11,11,0,0,1-3.53.56,9.63,9.63,0,0,1-4.69-1.14,8.37,8.37,0,0,1-3.27-3.14,9.12,9.12,0,0,1,0-9A8.29,8.29,0,0,1,344.07,37a9.69,9.69,0,0,1,4.72-1.13,10,10,0,0,1,3.74.67,7.66,7.66,0,0,1,2.86,2l-1.52,1.52a6.91,6.91,0,0,0-5-2,7.16,7.16,0,0,0-3.52.85,6.13,6.13,0,0,0-2.44,2.35,6.9,6.9,0,0,0,0,6.78,6.23,6.23,0,0,0,2.44,2.36,7,7,0,0,0,3.49.86,7.35,7.35,0,0,0,4-1.1Z"/><path class="cls-4" d="M371.41,53.27,367.7,48c-.45,0-.81,0-1.08,0h-4.24v5.23h-2.45V36.09h6.69a8,8,0,0,1,5.26,1.6,5.42,5.42,0,0,1,1.91,4.39,5.79,5.79,0,0,1-1,3.39,5.55,5.55,0,0,1-2.8,2l4.07,5.77ZM370.11,45a4,4,0,0,0,0-5.73,5.55,5.55,0,0,0-3.56-1h-4.17V46h4.17A5.49,5.49,0,0,0,370.11,45Z"/><path class="cls-4" d="M388.71,49h-9.13l-1.89,4.29h-2.53l7.78-17.18h2.43l7.8,17.18h-2.58Zm-.86-2-3.71-8.41L380.44,47Z"/><path class="cls-4" d="M411.64,53.27l0-12.51-6.21,10.42h-1.13l-6.2-10.35V53.27h-2.36V36.09h2l7.17,12.08L412,36.09h2l0,17.18Z"/></svg>