<?xml version="1.0" encoding="utf-8"?>
<!-- Generator: Adobe Illustrator 23.0.2, SVG Export Plug-In . SVG Version: 6.00 Build 0)  -->
<svg version="1.1" id="Layer_1" xmlns="http://www.w3.org/2000/svg" xmlns:xlink="http://www.w3.org/1999/xlink" x="0px" y="0px"
	 viewBox="0 0 226.8 87" style="enable-background:new 0 0 226.8 87;" xml:space="preserve">
<style type="text/css">
	.st0{fill:#405FAA;}
	.st1{fill:#3EBA94;}
	.st2{opacity:0.2;}
	.st3{fill:#231F20;}
	.st4{opacity:0.2;fill:#231F20;enable-background:new    ;}
	.st5{fill:#452253;}
	.st6{fill:#FFFFFF;}
</style>
<g>
	<g>
		<path class="st0" d="M77.7,78.7H7.3V8.3h70.4C77.7,8.3,77.7,78.7,77.7,78.7z M10.2,75.8h64.6V11.2H10.2V75.8z"/>
	</g>
	<g>
		<path class="st1" d="M63.4,53H44.8v-3h18.6c1.4,0,2.6-1.2,2.6-2.6v-0.5c0-1.1-0.9-2-2-2h-9c-3.1,0-5.6-2.5-5.6-5.6v-0.5
			c0-2.7,2.2-4.9,4.9-4.9H69v3H54.3c-1.1,0-2,0.9-2,2v0.5c0,1.4,1.2,2.6,2.6,2.6H64c2.7,0,4.9,2.2,4.9,4.9v0.5
			C69,50.5,66.5,53,63.4,53z"/>
	</g>
	<g class="st2">
		<path class="st3" d="M45.5,50.1L45.5,50.1h-0.7v3h0.7c2.6,0,4.8-1.2,6.4-3H45.5z"/>
		<path class="st3" d="M49.4,38.9v0.5c0,0,0,0,0,0.1c0.8,1,1.4,2.3,1.5,3.7c0.8,0.8,1.8,1.5,3,1.7c0-0.1,0-0.1,0-0.2v-1
			c0-0.7-0.1-1.4-0.2-2c-0.8-0.5-1.3-1.3-1.3-2.2V39c0-0.1,0-0.2,0-0.3c-0.6-0.9-1.3-1.8-2.1-2.4C49.7,36.9,49.4,37.9,49.4,38.9z"/>
	</g>
	<g>
		<path class="st0" d="M44.8,53H31.9v-3h12.9c3,0,5.4-2.4,5.4-5.4v-1c0-3.7-3-6.7-6.7-6.7H31.9v-3h11.6c5.3,0,9.7,4.3,9.7,9.7v1
			C53.1,49.3,49.4,53,44.8,53z"/>
	</g>
	<path class="st4" d="M32.5,36.9h2.7c-0.3-1.2-1.2-2.2-2.5-3h-0.8v2.3L32.5,36.9z"/>
	<g>
		<path class="st5" d="M34.8,53h-3V38.3c0-1.1-0.9-2-2-2h-0.5c-1.4,0-2.6,1.2-2.6,2.6v14h-3V39c0-3.1,2.5-5.6,5.6-5.6h0.5
			c2.7,0,4.9,2.2,4.9,4.9L34.8,53L34.8,53z"/>
	</g>
	<path class="st4" d="M24.7,35.9l-0.2,1.5l2.3,3.8V39c0-0.6,0.2-1.1,0.5-1.5c-0.4-1.2-1.1-2.1-1.6-2.6C25.3,35.2,25,35.6,24.7,35.9z
		"/>
	<g>
		<path class="st5" d="M26.8,53h-3V38.3c0-1.1-0.9-2-2-2h-0.5c-1.4,0-2.6,1.2-2.6,2.6v14h-3V39c0-3.1,2.5-5.6,5.6-5.6h0.5
			c2.7,0,4.9,2.2,4.9,4.9V53H26.8z"/>
	</g>
	<g>
		<path class="st0" d="M46.3,40.7h-9.4c-0.2,0-0.4-0.2-0.4-0.4s0.2-0.4,0.4-0.4h9.4c0.2,0,0.4,0.2,0.4,0.4
			C46.7,40.5,46.6,40.7,46.3,40.7z"/>
	</g>
	<g>
		<path class="st0" d="M46.3,46.6h-9.4c-0.2,0-0.4-0.2-0.4-0.4s0.2-0.4,0.4-0.4h9.4c0.2,0,0.4,0.2,0.4,0.4S46.6,46.6,46.3,46.6z"/>
	</g>
	<g>
		<path class="st0" d="M46.3,43.6h-9.4c-0.2,0-0.4-0.2-0.4-0.4s0.2-0.4,0.4-0.4h9.4c0.2,0,0.4,0.2,0.4,0.4S46.6,43.6,46.3,43.6z"/>
	</g>
	<polygon class="st4" points="35.2,50.1 34.8,53 34.8,50.1 	"/>
</g>
<g>
	<path class="st6" d="M96.6,20.9v-6.5l-3.2,5.3h-1.1L89,14.4v6.4h-2.4V10h2.1l4.1,6.8l4-6.8h2.1v10.9C98.9,20.9,96.6,20.9,96.6,20.9
		z"/>
	<path class="st6" d="M102.8,19.8c-0.9-1-1.4-2.3-1.3-3.7V10h2.5v6c0,2,0.8,2.9,2.4,2.9c0.7,0,1.3-0.2,1.8-0.7
		c0.5-0.6,0.7-1.4,0.6-2.2v-6h2.5v6.1c0.1,1.4-0.4,2.7-1.3,3.7C107.9,21.5,104.8,21.5,102.8,19.8L102.8,19.8z"/>
	<path class="st6" d="M121.2,15.3h2.3v4.4c-0.6,0.5-1.3,0.8-2.1,1c-0.8,0.2-1.6,0.4-2.4,0.4c-1,0-2.1-0.2-3-0.6
		c-0.9-0.5-1.6-1.1-2.1-2c-1-1.8-1-4,0-5.8c0.5-0.9,1.2-1.6,2.1-2.1c0.9-0.5,2-0.7,3.1-0.7c0.9,0,1.8,0.1,2.6,0.5
		c0.8,0.3,1.4,0.8,2,1.4l-1.6,1.5c-0.7-0.8-1.7-1.3-2.8-1.2c-0.6,0-1.2,0.2-1.8,0.4c-0.5,0.3-1,0.7-1.3,1.2s-0.5,1.2-0.4,1.8
		c0,0.6,0.1,1.2,0.4,1.8c0.3,0.5,0.7,1,1.3,1.2c0.5,0.3,1.2,0.5,1.8,0.4c0.7,0,1.4-0.2,2-0.5L121.2,15.3z"/>
	<path class="st6" d="M133,18.6h-5.1l-1,2.3h-2.6l4.9-10.9h2.5l4.9,10.9H134L133,18.6z M132.2,16.7l-1.8-4.2l-1.8,4.2H132.2z"/>
	<path class="st6" d="M137.8,10h2.5v8.9h5.5V21h-8V10z"/>
	<path class="st6" d="M147.2,10h2.6v10.9h-2.6V10z"/>
	<path class="st6" d="M162.2,20.9v-6.5l-3.2,5.3h-1.1l-3.2-5.3v6.4h-2.3V10h2.1l4.1,6.8l4-6.8h2.1v10.9
		C164.7,20.9,162.2,20.9,162.2,20.9z"/>
	<path class="st6" d="M86.7,28.7h5c1.1,0,2.2,0.2,3.2,0.6c0.9,0.4,1.6,1.1,2.1,1.9c1,1.8,1,4,0,5.7c-0.5,0.9-1.2,1.5-2.1,2
		c-1,0.5-2.1,0.7-3.1,0.7h-5L86.7,28.7z M91.5,37.6c1,0,1.9-0.3,2.6-0.9c0.7-0.6,1-1.5,1-2.5c0-0.9-0.3-1.8-1-2.5
		c-0.7-0.6-1.7-0.9-2.6-0.9h-2.3v6.8H91.5z"/>
	<path class="st6" d="M108,37.6v2h-8.4V28.7h8.2v2H102v2.4h5.1v2H102v2.5C102,37.6,108,37.6,108,37.6z"/>
	<path class="st6" d="M120.3,28.7l-4.7,10.9h-2.5l-4.7-10.9h2.7l3.3,7.8l3.4-7.8H120.3z"/>
	<path class="st6" d="M129.7,37.6v2h-8.5V28.7h8.2v2h-5.7v2.4h5.1v2h-5.1v2.5C123.7,37.6,129.7,37.6,129.7,37.6z"/>
	<path class="st6" d="M131.7,28.7h2.5v8.9h5.5v2h-8V28.7z"/>
	<path class="st6" d="M143.1,39.1c-0.9-0.5-1.6-1.2-2.1-2c-0.5-0.9-0.8-1.9-0.8-2.9s0.2-2,0.8-2.9c0.5-0.8,1.3-1.5,2.1-2
		c0.9-0.5,2-0.8,3.1-0.8s2.1,0.2,3.1,0.7c0.9,0.5,1.6,1.2,2.1,2c0.5,0.9,0.8,1.9,0.8,2.9c0,2.1-1.1,3.9-2.9,4.9
		c-0.9,0.5-2,0.7-3.1,0.7C145.1,39.8,144.1,39.6,143.1,39.1z M148,37.2c0.5-0.3,0.9-0.7,1.2-1.2c0.6-1.1,0.6-2.4,0-3.5
		c-0.3-0.5-0.7-1-1.2-1.3s-1.2-0.5-1.8-0.4c-0.6,0-1.2,0.1-1.8,0.4c-0.5,0.3-0.9,0.7-1.2,1.2c-0.6,1.1-0.6,2.4,0,3.5
		c0.3,0.5,0.7,0.9,1.2,1.2s1.2,0.5,1.8,0.4C146.8,37.6,147.4,37.5,148,37.2z"/>
	<path class="st6" d="M161.3,29.2c0.7,0.3,1.2,0.8,1.6,1.4c0.4,0.6,0.6,1.4,0.6,2.1c0.1,1.5-0.8,3-2.2,3.5c-0.8,0.3-1.7,0.5-2.5,0.5
		h-2.2v2.9H154V28.7h4.7C159.6,28.7,160.5,28.8,161.3,29.2z M160.4,34c0.8-0.8,0.8-2,0-2.8l0,0c-0.5-0.4-1.1-0.6-1.8-0.5h-2.1v3.9
		h2.1C159.3,34.7,159.9,34.4,160.4,34z"/>
	<path class="st6" d="M175.2,39.6v-6.5l-3.2,5.3h-1.2l-3.2-5.3v6.5h-2.4V28.7h2.1l4.1,6.8l4-6.8h2.1v10.9H175.2z"/>
	<path class="st6" d="M188.6,37.6v2h-8.4V28.7h8.2v2h-5.7v2.4h5.1v2h-5.1v2.5C182.7,37.6,188.6,37.6,188.6,37.6z"/>
	<path class="st6" d="M200.6,28.7v10.9h-2.1l-5.4-6.6v6.6h-2.5V28.7h2.1l5.4,6.6v-6.6C198.1,28.7,200.6,28.7,200.6,28.7z"/>
	<path class="st6" d="M205.5,30.7H202v-2.1h9.5v2.1H208v8.9h-2.5V30.7z"/>
	<path class="st6" d="M95.5,58.5l-1.3-1.2c-1,0.8-2.3,1.2-3.5,1.2c-0.7,0-1.5-0.1-2.1-0.4c-0.6-0.2-1.1-0.6-1.5-1.1
		c-0.3-0.4-0.5-1-0.5-1.5c0-0.6,0.2-1.3,0.6-1.8c0.5-0.6,1.1-1.1,1.8-1.5c-0.3-0.3-0.6-0.7-0.9-1.2c-0.2-0.4-0.3-0.8-0.3-1.2
		c0-0.5,0.1-1,0.4-1.4s0.7-0.7,1.2-0.9c0.6-0.2,1.2-0.3,1.8-0.3c0.8,0,1.6,0.2,2.3,0.7c0.5,0.4,0.9,1.1,0.9,1.8
		c0,0.5-0.2,1.1-0.5,1.5c-0.5,0.5-1,0.9-1.6,1.3l2,1.8c0.3-0.5,0.4-1.1,0.5-1.7l2,0.6c-0.2,0.9-0.5,1.7-1,2.5l1.3,1.2L95.5,58.5z
		 M92.8,55.9l-2.6-2.5c-0.4,0.2-0.8,0.5-1,0.8s-0.3,0.6-0.3,0.9c0,0.4,0.2,0.8,0.5,1c0.4,0.3,0.9,0.4,1.4,0.4
		C91.5,56.6,92.2,56.3,92.8,55.9z M90.2,49.2c-0.2,0.2-0.3,0.4-0.3,0.7c0,0.2,0.1,0.4,0.2,0.6c0.2,0.3,0.4,0.5,0.7,0.8
		c0.4-0.2,0.8-0.4,1.1-0.7c0.2-0.2,0.3-0.5,0.3-0.7c0-0.3-0.1-0.5-0.3-0.7c-0.2-0.2-0.5-0.3-0.8-0.2C90.8,48.9,90.5,49,90.2,49.2
		L90.2,49.2z"/>
	<path class="st6" d="M103.5,58.1c-0.7-0.2-1.4-0.5-2-0.9l0.9-1.9c0.5,0.4,1.1,0.6,1.7,0.8s1.3,0.3,1.9,0.3c0.5,0,1.1-0.1,1.6-0.3
		c0.3-0.2,0.5-0.5,0.5-0.9c0-0.2-0.1-0.5-0.3-0.6c-0.2-0.2-0.5-0.3-0.8-0.4c-0.3-0.1-0.7-0.2-1.3-0.4c-0.7-0.2-1.4-0.3-2.1-0.6
		c-0.5-0.2-1-0.5-1.4-1s-0.6-1.1-0.6-1.8c0-0.6,0.2-1.3,0.5-1.8c0.4-0.6,0.9-1,1.5-1.2c0.8-0.3,1.7-0.5,2.5-0.5c0.7,0,1.4,0.1,2,0.2
		c0.6,0.2,1.2,0.4,1.8,0.7l-0.8,1.9c-0.9-0.5-2-0.8-3-0.9c-0.5,0-1.1,0.1-1.6,0.4c-0.3,0.2-0.5,0.5-0.5,0.9s0.2,0.7,0.6,0.8
		c0.6,0.2,1.2,0.4,1.8,0.5c0.7,0.2,1.4,0.3,2,0.6c0.5,0.2,1,0.5,1.4,0.9c0.4,0.5,0.6,1.1,0.6,1.8c0,0.6-0.2,1.3-0.5,1.8
		c-0.4,0.5-0.9,1-1.6,1.2c-0.8,0.3-1.7,0.5-2.5,0.4C105.1,58.5,104.3,58.4,103.5,58.1z"/>
	<path class="st6" d="M114.6,57.8c-0.8-0.5-1.6-1.2-2-2c-1-1.8-1-4,0-5.8c0.5-0.9,1.2-1.5,2.1-2s2-0.7,3-0.7c0.9,0,1.7,0.2,2.6,0.5
		c0.7,0.3,1.4,0.8,1.9,1.4l-1.6,1.5c-0.7-0.8-1.7-1.3-2.7-1.3c-0.6,0-1.2,0.2-1.8,0.5c-0.5,0.3-1,0.7-1.2,1.2
		c-0.6,1.1-0.6,2.4,0,3.5c0.3,0.5,0.7,1,1.2,1.2c0.5,0.3,1.2,0.5,1.8,0.4c1.1,0,2.1-0.5,2.7-1.3l1.6,1.5c-0.5,0.6-1.2,1.1-1.9,1.4
		c-0.8,0.3-1.7,0.5-2.6,0.5C116.6,58.5,115.5,58.2,114.6,57.8z"/>
	<path class="st6" d="M133.8,47.4v10.9h-2.6v-4.5h-4.9v4.5h-2.5V47.4h2.5v4.3h4.9v-4.3H133.8z"/>
	<path class="st6" d="M138.6,57.7c-0.9-0.5-1.6-1.2-2.1-2c-0.5-0.9-0.8-1.9-0.8-2.9s0.2-2,0.8-2.9c0.5-0.8,1.3-1.5,2.1-2
		c1.9-1,4.2-1,6.1,0c1.8,1,2.9,2.9,2.9,4.9c0,1-0.3,2-0.8,2.9c-0.5,0.8-1.3,1.5-2.1,2C142.8,58.6,140.5,58.6,138.6,57.7z
		 M143.4,55.9c0.5-0.3,0.9-0.7,1.2-1.2c0.6-1.1,0.6-2.4,0-3.5c-0.3-0.5-0.7-0.9-1.2-1.2c-1.1-0.6-2.4-0.6-3.5,0
		c-0.5,0.3-0.9,0.7-1.2,1.2c-0.6,1.1-0.6,2.4,0,3.5c0.3,0.5,0.7,0.9,1.2,1.2C140.9,56.5,142.3,56.5,143.4,55.9z"/>
	<path class="st6" d="M149.5,47.4h2.5v8.9h5.5v2.1h-8V47.4z"/>
	<path class="st6" d="M166.2,55.9h-5.1l-1,2.3h-2.6l4.9-10.9h2.5l4.9,10.9h-2.6L166.2,55.9z M165.4,54.1l-1.8-4.2l-1.8,4.2H165.4z"
		/>
	<path class="st6" d="M177.9,58.3l-2.1-3h-2.3v3H171V47.4h4.7c0.9,0,1.7,0.1,2.5,0.5c0.7,0.3,1.2,0.8,1.6,1.4
		c0.4,0.6,0.6,1.4,0.6,2.1c0,0.7-0.2,1.5-0.6,2.1c-0.4,0.6-1,1.1-1.7,1.3l2.4,3.5H177.9z M177.2,49.9c-0.5-0.4-1.1-0.5-1.8-0.5h-2
		v3.8h2.1c0.6,0.1,1.3-0.1,1.8-0.5c0.8-0.7,0.8-2,0.1-2.8C177.3,50,177.3,50,177.2,49.9L177.2,49.9z"/>
	<path class="st6" d="M183.4,58.1c-0.7-0.2-1.4-0.5-2-0.9l0.9-1.9c0.5,0.4,1.1,0.7,1.8,0.8c0.6,0.2,1.3,0.3,1.9,0.3
		c0.6,0,1.1-0.1,1.6-0.3c0.3-0.2,0.5-0.5,0.5-0.9c0-0.2-0.1-0.5-0.3-0.6c-0.2-0.2-0.5-0.3-0.8-0.4c-0.3-0.1-0.7-0.2-1.3-0.4
		c-0.7-0.2-1.4-0.4-2.1-0.6c-0.5-0.2-1-0.5-1.3-1c-0.4-0.5-0.6-1.1-0.6-1.8c0-0.6,0.2-1.2,0.5-1.8c0.4-0.5,0.9-1,1.6-1.2
		c0.8-0.3,1.7-0.5,2.5-0.5c0.7,0,1.4,0.1,2,0.2c0.6,0.1,1.2,0.4,1.8,0.7l-0.8,1.9c-0.9-0.5-2-0.8-3-0.9c-0.5,0-1.1,0.1-1.6,0.4
		c-0.3,0.2-0.5,0.5-0.5,0.9s0.2,0.7,0.6,0.8c0.6,0.2,1.2,0.4,1.8,0.5c0.7,0.2,1.4,0.4,2.1,0.6c0.5,0.2,1,0.5,1.4,0.9
		c0.4,0.5,0.6,1.1,0.6,1.8c0,0.6-0.2,1.3-0.5,1.8c-0.4,0.5-0.9,1-1.6,1.2c-0.8,0.3-1.7,0.5-2.5,0.4
		C185.2,58.5,184.3,58.4,183.4,58.1z"/>
	<path class="st6" d="M202.3,47.4v10.9h-2.5v-4.5h-5v4.5h-2.6V47.4h2.5v4.3h5v-4.3H202.3z"/>
	<path class="st6" d="M204.9,47.4h2.5v10.9h-2.5V47.4z"/>
	<path class="st6" d="M217.3,47.9c0.7,0.3,1.2,0.8,1.6,1.4c0.8,1.3,0.8,2.9,0,4.2c-0.4,0.6-1,1.1-1.6,1.4c-0.8,0.3-1.7,0.5-2.5,0.5
		h-2.2v3H210v-11h4.7C215.6,47.4,216.5,47.5,217.3,47.9z M216.3,52.8c0.8-0.7,0.8-2,0.1-2.8c0,0,0,0-0.1-0.1
		c-0.5-0.4-1.1-0.5-1.8-0.5h-2.1v3.8h2.1C215.2,53.3,215.8,53.1,216.3,52.8z"/>
	<path class="st6" d="M93.9,66.5c0.7,0.3,1.2,0.8,1.6,1.4s0.6,1.4,0.6,2.2c0,0.7-0.2,1.5-0.6,2.1s-1,1.1-1.6,1.4
		c-0.8,0.3-1.7,0.5-2.5,0.5h-2.2v3h-2.5v-11h4.7C92.3,66,93.1,66.2,93.9,66.5z M93,71.4c0.8-0.7,0.8-2,0.1-2.7c0,0,0,0-0.1-0.1
		c-0.5-0.4-1.1-0.5-1.8-0.5h-2.1v3.7h2.1C91.9,71.9,92.5,71.8,93,71.4z"/>
	<path class="st6" d="M104.9,77l-2.1-3h-2.3v3H98V66.1h4.7c0.9,0,1.7,0.1,2.5,0.5c0.7,0.3,1.2,0.8,1.6,1.4s0.6,1.4,0.6,2.1
		s-0.2,1.5-0.6,2.1s-1,1.1-1.6,1.3l2.4,3.5H104.9z M104.2,68.6c-0.5-0.4-1.1-0.5-1.8-0.5h-2v3.8h2.1c0.6,0,1.3-0.1,1.8-0.5
		c0.4-0.4,0.6-0.9,0.6-1.4C104.9,69.5,104.6,69,104.2,68.6z"/>
	<path class="st6" d="M111.6,76.5c-2.7-1.5-3.7-4.9-2.3-7.6c0.5-1,1.3-1.7,2.3-2.3c1.9-1,4.2-1,6.1,0c0.9,0.5,1.6,1.2,2.1,2
		c1,1.8,1,4,0,5.8c-0.5,0.9-1.2,1.6-2.1,2C115.8,77.4,113.5,77.4,111.6,76.5z M116.4,74.6c0.5-0.3,0.9-0.7,1.2-1.2
		c0.6-1.1,0.6-2.4,0-3.5c-0.3-0.5-0.7-0.9-1.2-1.2c-1.1-0.6-2.4-0.6-3.5,0c-0.5,0.3-0.9,0.7-1.2,1.2c-0.6,1.1-0.6,2.4,0,3.5
		c0.3,0.5,0.7,0.9,1.2,1.2C113.9,75.2,115.3,75.2,116.4,74.6z"/>
	<path class="st6" d="M129.9,71.4h2.3v4.4c-0.6,0.5-1.3,0.8-2.1,1s-1.6,0.4-2.4,0.4c-1.1,0-2.1-0.2-3-0.7s-1.6-1.1-2.1-2
		c-1-1.8-1-4,0-5.8c0.5-0.9,1.3-1.5,2.1-2c1-0.5,2-0.7,3.1-0.7c0.9,0,1.8,0.2,2.6,0.5s1.4,0.8,2,1.4l-1.6,1.5
		c-0.7-0.8-1.7-1.2-2.8-1.2c-0.6,0-1.2,0.1-1.8,0.4c-0.5,0.3-1,0.7-1.3,1.2c-0.6,1.1-0.6,2.5,0,3.6c0.3,0.5,0.7,1,1.3,1.2
		c0.5,0.3,1.2,0.4,1.8,0.4c0.7,0,1.4-0.2,2-0.5L129.9,71.4z"/>
	<path class="st6" d="M141.5,77l-2.1-3H137v3h-2.5V66.1h4.7c0.9,0,1.7,0.1,2.5,0.5c1.9,0.9,2.8,3.3,1.8,5.2
		c-0.1,0.1-0.1,0.2-0.2,0.4c-0.4,0.6-1,1.1-1.6,1.3l2.4,3.5H141.5z M140.9,68.6c-0.5-0.4-1.1-0.5-1.8-0.5H137v3.8h2.1
		c0.6,0,1.3-0.1,1.8-0.5c0.4-0.4,0.6-0.9,0.6-1.4C141.5,69.5,141.3,69,140.9,68.6z"/>
	<path class="st6" d="M153.2,74.7h-5.1l-1,2.3h-2.6l4.9-10.9h2.5l4.9,10.9h-2.7L153.2,74.7z M152.4,72.7l-1.8-4.2l-1.8,4.2H152.4z"
		/>
	<path class="st6" d="M167.8,77v-6.5l-3.2,5.3h-1.1l-3.2-5.3v6.4h-2.4V66.1h2.1l4.1,6.8l4-6.8h2.1V77H167.8z"/>
</g>
</svg>
