<svg id="Layer_1" data-name="Layer 1" xmlns="http://www.w3.org/2000/svg" viewBox="0 0 130.34 50"><defs><style>.cls-1{fill:#404041;}.cls-2{fill:#3e5faa;}.cls-3{fill:#14a291;}.cls-4{fill:#078474;}.cls-5{fill:#2b5099;}.cls-6{fill:#4c2874;}.cls-7{fill:#342360;}</style></defs><title>logo_website</title><path class="cls-1" d="M56,12.26V8.57l-1.81,3h-.64l-1.8-3v3.61H50.41V6.11h1.18l2.3,3.82,2.27-3.82h1.17l0,6.15Z"/><path class="cls-1" d="M59.49,11.63a2.79,2.79,0,0,1-.74-2.08V6.11h1.43V9.5c0,1.1.45,1.65,1.37,1.65a1.29,1.29,0,0,0,1-.4,1.88,1.88,0,0,0,.35-1.25V6.11h1.4V9.55a2.79,2.79,0,0,1-.73,2.08,3.24,3.24,0,0,1-4.1,0Z"/><path class="cls-1" d="M69.89,9.08h1.3v2.5a3.71,3.71,0,0,1-1.16.58,4.34,4.34,0,0,1-1.33.2A3.5,3.5,0,0,1,67,12a3,3,0,0,1-1.2-1.13,3.28,3.28,0,0,1,0-3.28A3,3,0,0,1,67,6.41,3.66,3.66,0,0,1,68.73,6a3.76,3.76,0,0,1,1.46.27,3,3,0,0,1,1.11.79l-.91.85a2.1,2.1,0,0,0-1.59-.7,2.12,2.12,0,0,0-1,.25,1.75,1.75,0,0,0-.71.69,2,2,0,0,0-.25,1,2,2,0,0,0,.25,1,1.84,1.84,0,0,0,.71.7,2,2,0,0,0,1,.25,2.39,2.39,0,0,0,1.11-.26Z"/><path class="cls-1" d="M76.56,10.94H73.7l-.54,1.32H71.7l2.74-6.15h1.41l2.75,6.15H77.1Zm-.45-1.08-1-2.36-1,2.36Z"/><path class="cls-1" d="M79.24,6.11h1.42v5h3.09v1.16H79.24Z"/><path class="cls-1" d="M84.55,6.11H86v6.15H84.55Z"/><path class="cls-1" d="M93,12.26V8.57l-1.81,3h-.64l-1.81-3v3.61H87.43V6.11h1.18l2.3,3.82,2.27-3.82h1.16l0,6.15Z"/><path class="cls-1" d="M50.41,16.65h2.8A4,4,0,0,1,55,17a2.9,2.9,0,0,1,1.19,1.08,3.25,3.25,0,0,1,0,3.23A2.77,2.77,0,0,1,55,22.42a3.84,3.84,0,0,1-1.77.38h-2.8Zm2.73,5a2.09,2.09,0,0,0,1.47-.51,1.8,1.8,0,0,0,.55-1.39,1.82,1.82,0,0,0-.55-1.4,2.09,2.09,0,0,0-1.47-.51h-1.3v3.81Z"/><path class="cls-1" d="M62.43,21.66V22.8H57.67V16.65h4.65v1.14H59.09v1.34h2.85v1.11H59.09v1.42Z"/><path class="cls-1" d="M69.4,16.65,66.73,22.8h-1.4l-2.66-6.15h1.54l1.87,4.4,1.9-4.4Z"/><path class="cls-1" d="M74.67,21.66V22.8H69.9V16.65h4.65v1.14H71.32v1.34h2.86v1.11H71.32v1.42Z"/><path class="cls-1" d="M75.8,16.65h1.42v5h3.09V22.8H75.8Z"/><path class="cls-1" d="M82.26,22.5a3.09,3.09,0,0,1-1.21-1.14,3.13,3.13,0,0,1-.43-1.63,3.08,3.08,0,0,1,.43-1.63A3,3,0,0,1,82.26,17,3.5,3.5,0,0,1,84,16.55a3.54,3.54,0,0,1,1.73.41,3,3,0,0,1,1.2,1.14,3.08,3.08,0,0,1,.44,1.63,3.09,3.09,0,0,1-1.64,2.77,3.65,3.65,0,0,1-1.73.41A3.61,3.61,0,0,1,82.26,22.5ZM85,21.45a1.86,1.86,0,0,0,.69-.7,2.21,2.21,0,0,0,0-2A1.86,1.86,0,0,0,85,18a1.94,1.94,0,0,0-1-.25A1.91,1.91,0,0,0,83,18a1.86,1.86,0,0,0-.69.7,2.21,2.21,0,0,0,0,2,1.86,1.86,0,0,0,.69.7,2,2,0,0,0,1,.25A2,2,0,0,0,85,21.45Z"/><path class="cls-1" d="M92.5,16.92a2.17,2.17,0,0,1,.93.78,2.09,2.09,0,0,1,.33,1.18,2,2,0,0,1-1.26,2,3.43,3.43,0,0,1-1.42.27H89.84V22.8H88.42V16.65h2.66A3.43,3.43,0,0,1,92.5,16.92ZM92,19.67a1.11,1.11,0,0,0,0-1.58,1.47,1.47,0,0,0-1-.28H89.84V20H91A1.53,1.53,0,0,0,92,19.67Z"/><path class="cls-1" d="M100.36,22.8V19.11l-1.81,3H97.9l-1.8-3V22.8H94.77V16.65h1.17l2.31,3.82,2.26-3.82h1.17l0,6.15Z"/><path class="cls-1" d="M107.92,21.66V22.8h-4.76V16.65h4.65v1.14h-3.24v1.34h2.86v1.11h-2.86v1.42Z"/><path class="cls-1" d="M114.7,16.65V22.8h-1.17l-3.07-3.73V22.8h-1.4V16.65h1.17l3.06,3.74V16.65Z"/><path class="cls-1" d="M117.43,17.81h-2V16.65h5.36v1.16h-2v5h-1.42Z"/><path class="cls-1" d="M55.14,33.45l-.74-.68a3.21,3.21,0,0,1-2,.68,3.3,3.3,0,0,1-1.21-.21,2,2,0,0,1-.84-.6,1.39,1.39,0,0,1-.3-.87,1.69,1.69,0,0,1,.32-1,3.13,3.13,0,0,1,1-.83,2.76,2.76,0,0,1-.48-.65,1.51,1.51,0,0,1-.15-.65,1.34,1.34,0,0,1,.24-.79,1.49,1.49,0,0,1,.67-.53,2.46,2.46,0,0,1,1-.19,2,2,0,0,1,1.28.38,1.26,1.26,0,0,1,.48,1,1.36,1.36,0,0,1-.28.85,3,3,0,0,1-.92.71l1.12,1a3.78,3.78,0,0,0,.31-.95l1.1.34a4.11,4.11,0,0,1-.56,1.4l.72.66ZM53.59,32l-1.48-1.39a2,2,0,0,0-.59.47.8.8,0,0,0-.18.52.64.64,0,0,0,.3.55,1.38,1.38,0,0,0,.8.21A1.94,1.94,0,0,0,53.59,32Zm-1.44-3.81a.5.5,0,0,0-.18.4.62.62,0,0,0,.1.35,2.31,2.31,0,0,0,.37.43,2.5,2.5,0,0,0,.63-.42.62.62,0,0,0,.17-.41.46.46,0,0,0-.16-.37.64.64,0,0,0-.44-.14A.69.69,0,0,0,52.15,28.21Z"/><path class="cls-1" d="M59.91,33.26a3.52,3.52,0,0,1-1.1-.52l.49-1.07a3.31,3.31,0,0,0,.94.47,3.7,3.7,0,0,0,1.09.17,1.72,1.72,0,0,0,.89-.18.53.53,0,0,0,.29-.48.43.43,0,0,0-.17-.36,1.08,1.08,0,0,0-.44-.23c-.18-.06-.42-.13-.72-.2A10.08,10.08,0,0,1,60,30.53a1.8,1.8,0,0,1-.77-.54,1.4,1.4,0,0,1-.32-1,1.65,1.65,0,0,1,.29-1,1.92,1.92,0,0,1,.87-.69,3.58,3.58,0,0,1,1.43-.26,4.89,4.89,0,0,1,1.15.14,3.55,3.55,0,0,1,1,.41l-.44,1.08a3.48,3.48,0,0,0-1.71-.49,1.57,1.57,0,0,0-.88.2.6.6,0,0,0-.29.51.51.51,0,0,0,.33.47,5.52,5.52,0,0,0,1,.3,10.08,10.08,0,0,1,1.15.33,2,2,0,0,1,.77.53,1.44,1.44,0,0,1,.32,1,1.65,1.65,0,0,1-.3,1,2,2,0,0,1-.88.69,3.59,3.59,0,0,1-1.43.25A5.05,5.05,0,0,1,59.91,33.26Z"/><path class="cls-1" d="M66.15,33.05A3.06,3.06,0,0,1,65,31.91a3.34,3.34,0,0,1,0-3.28,3,3,0,0,1,1.2-1.13,3.54,3.54,0,0,1,1.71-.41,3.7,3.7,0,0,1,1.44.28,2.94,2.94,0,0,1,1.09.81l-.92.85a1.93,1.93,0,0,0-1.54-.73,2,2,0,0,0-1,.26,1.72,1.72,0,0,0-.7.69,2.21,2.21,0,0,0,0,2,1.81,1.81,0,0,0,.7.7,2,2,0,0,0,1,.25,1.93,1.93,0,0,0,1.54-.73l.92.85a2.84,2.84,0,0,1-1.09.81,3.61,3.61,0,0,1-1.45.28A3.53,3.53,0,0,1,66.15,33.05Z"/><path class="cls-1" d="M77,27.2v6.15H75.56V30.83H72.77v2.52H71.35V27.2h1.42v2.42h2.79V27.2Z"/><path class="cls-1" d="M79.7,33a3,3,0,0,1-1.21-1.14,3.08,3.08,0,0,1-.43-1.63,3.13,3.13,0,0,1,.43-1.63A3.16,3.16,0,0,1,79.7,27.5a3.83,3.83,0,0,1,3.45,0,3.09,3.09,0,0,1,1.64,2.77,3.08,3.08,0,0,1-.44,1.63A3,3,0,0,1,83.15,33a3.83,3.83,0,0,1-3.45,0ZM82.41,32a1.86,1.86,0,0,0,.69-.7,2.21,2.21,0,0,0,0-2,1.76,1.76,0,0,0-.69-.69,2,2,0,0,0-2,0,1.76,1.76,0,0,0-.69.69,2.21,2.21,0,0,0,0,2,1.86,1.86,0,0,0,.69.7,2.07,2.07,0,0,0,2,0Z"/><path class="cls-1" d="M85.86,27.2h1.43v5h3.08v1.16H85.86Z"/><path class="cls-1" d="M95.28,32H92.42l-.55,1.32H90.42l2.74-6.15h1.4l2.75,6.15H95.82ZM94.83,31l-1-2.36-1,2.36Z"/><path class="cls-1" d="M101.87,33.35l-1.18-1.71H99.38v1.71H98V27.2h2.66a3.46,3.46,0,0,1,1.42.27,2.07,2.07,0,0,1,.92.77,2.13,2.13,0,0,1,.33,1.19,2.07,2.07,0,0,1-.33,1.18,2,2,0,0,1-.94.76l1.38,2Zm-.36-4.72a1.5,1.5,0,0,0-1-.27H99.38V30.5h1.16a1.44,1.44,0,0,0,1-.28,1.1,1.1,0,0,0,0-1.59Z"/><path class="cls-1" d="M105,33.26a3.52,3.52,0,0,1-1.1-.52l.48-1.07a3.51,3.51,0,0,0,1,.47,3.69,3.69,0,0,0,1.08.17,1.73,1.73,0,0,0,.9-.18.55.55,0,0,0,.29-.48.46.46,0,0,0-.17-.36,1.08,1.08,0,0,0-.44-.23c-.18-.06-.42-.13-.72-.2a10.32,10.32,0,0,1-1.16-.33,1.84,1.84,0,0,1-.76-.54,1.4,1.4,0,0,1-.33-1,1.73,1.73,0,0,1,.29-1,2,2,0,0,1,.88-.69,3.55,3.55,0,0,1,1.43-.26,5,5,0,0,1,1.15.14,3.48,3.48,0,0,1,1,.41l-.44,1.08a3.45,3.45,0,0,0-1.7-.49,1.57,1.57,0,0,0-.88.2.58.58,0,0,0-.29.51.51.51,0,0,0,.33.47,5.28,5.28,0,0,0,1,.3A10.72,10.72,0,0,1,108,30a2,2,0,0,1,.77.53,1.44,1.44,0,0,1,.32,1,1.65,1.65,0,0,1-.3,1,2,2,0,0,1-.88.69,3.59,3.59,0,0,1-1.43.25A5.05,5.05,0,0,1,105,33.26Z"/><path class="cls-1" d="M115.66,27.2v6.15h-1.42V30.83h-2.8v2.52H110V27.2h1.42v2.42h2.8V27.2Z"/><path class="cls-1" d="M117.12,27.2h1.43v6.15h-1.43Z"/><path class="cls-1" d="M124.09,27.47a2.07,2.07,0,0,1,.92.77,2.29,2.29,0,0,1,0,2.37,2,2,0,0,1-.92.77,3.46,3.46,0,0,1-1.42.27h-1.24v1.7H120V27.2h2.67A3.46,3.46,0,0,1,124.09,27.47Zm-.53,2.75a1.1,1.1,0,0,0,0-1.59,1.5,1.5,0,0,0-1-.27h-1.16v2.13h1.16A1.5,1.5,0,0,0,123.56,30.22Z"/><path class="cls-1" d="M54.5,38a2,2,0,0,1,.92.77A2.09,2.09,0,0,1,55.75,40a2.13,2.13,0,0,1-.33,1.19,2.07,2.07,0,0,1-.92.77,3.49,3.49,0,0,1-1.42.27H51.84v1.69H50.41V37.74h2.67A3.33,3.33,0,0,1,54.5,38ZM54,40.76a1.09,1.09,0,0,0,0-1.58,1.51,1.51,0,0,0-1-.28H51.84V41H53A1.46,1.46,0,0,0,54,40.76Z"/><path class="cls-1" d="M60.68,43.89l-1.19-1.71H58.18v1.71H56.76V37.74h2.66a3.27,3.27,0,0,1,1.42.28,2.09,2.09,0,0,1,.93.77A2.17,2.17,0,0,1,62.09,40a2.1,2.1,0,0,1-.33,1.19,2.13,2.13,0,0,1-.93.76l1.38,2Zm-.36-4.71a1.55,1.55,0,0,0-1-.28H58.18v2.15h1.16a1.55,1.55,0,0,0,1-.28,1,1,0,0,0,.33-.8A1,1,0,0,0,60.32,39.18Z"/><path class="cls-1" d="M64.47,43.59a3.15,3.15,0,0,1,0-5.54,3.83,3.83,0,0,1,3.45,0,3.13,3.13,0,0,1,1.2,1.14,3.24,3.24,0,0,1,0,3.26,3.13,3.13,0,0,1-1.2,1.14,3.83,3.83,0,0,1-3.45,0Zm2.71-1.05a1.86,1.86,0,0,0,.69-.7,2.21,2.21,0,0,0,0-2,1.86,1.86,0,0,0-.69-.7,2.07,2.07,0,0,0-2,0,1.86,1.86,0,0,0-.69.7,2.21,2.21,0,0,0,0,2,1.86,1.86,0,0,0,.69.7,2.07,2.07,0,0,0,2,0Z"/><path class="cls-1" d="M74.79,40.72h1.3v2.5a3.82,3.82,0,0,1-1.16.58,4.66,4.66,0,0,1-1.33.2,3.64,3.64,0,0,1-1.72-.41,3,3,0,0,1-1.2-1.13,3.34,3.34,0,0,1,0-3.28,3.07,3.07,0,0,1,1.21-1.13,3.6,3.6,0,0,1,1.74-.41,3.85,3.85,0,0,1,1.47.27,3,3,0,0,1,1.11.79l-.92.84a2.12,2.12,0,0,0-1.59-.69,2.08,2.08,0,0,0-1,.25,1.71,1.71,0,0,0-.72.69,2.23,2.23,0,0,0,0,2.05,1.84,1.84,0,0,0,.71.7,2.18,2.18,0,0,0,1,.25,2.28,2.28,0,0,0,1.11-.27Z"/><path class="cls-1" d="M81.33,43.89l-1.19-1.71H78.83v1.71H77.41V37.74h2.66a3.27,3.27,0,0,1,1.42.28,2.2,2.2,0,0,1,.92,3.14,2.13,2.13,0,0,1-.93.76l1.38,2ZM81,39.18a1.53,1.53,0,0,0-1-.28H78.83v2.15H80a1.53,1.53,0,0,0,1-.28,1,1,0,0,0,.33-.8A1,1,0,0,0,81,39.18Z"/><path class="cls-1" d="M87.92,42.58H85.06l-.54,1.31H83.06l2.74-6.15h1.41L90,43.89H88.47Zm-.45-1.08-1-2.36-1,2.36Z"/><path class="cls-1" d="M96.2,43.89V40.2l-1.81,3h-.64l-1.8-3v3.61H90.6V37.74h1.18l2.3,3.83,2.27-3.83h1.17v6.15Z"/><path class="cls-2" d="M45,45H5V5H45ZM6.65,43.35h36.7V6.65H6.65Z"/><path class="cls-3" d="M36.89,30.41H26.3V28.72H36.89a1.49,1.49,0,0,0,1.49-1.49V27a1.11,1.11,0,0,0-1.11-1.11H32.1a3.17,3.17,0,0,1-3.17-3.17v-.28a2.8,2.8,0,0,1,2.79-2.8h8.34v1.69H31.72a1.11,1.11,0,0,0-1.11,1.11v.28a1.49,1.49,0,0,0,1.49,1.49h5.17A2.79,2.79,0,0,1,40.06,27v.28A3.18,3.18,0,0,1,36.89,30.41Z"/><path class="cls-4" d="M26.72,28.72H26.3v1.69h.42a4.75,4.75,0,0,0,3.62-1.69Z"/><path class="cls-4" d="M28.93,22.39v.31a3.82,3.82,0,0,1,.83,2.11,3.23,3.23,0,0,0,1.7,1V25.1a5.5,5.5,0,0,0-.12-1.16,1.47,1.47,0,0,1-.73-1.27v-.28a1.11,1.11,0,0,1,0-.19,5.55,5.55,0,0,0-1.22-1.38A2.83,2.83,0,0,0,28.93,22.39Z"/><path class="cls-2" d="M26.3,30.41H19V28.72H26.3a3.06,3.06,0,0,0,3.06-3.06V25.1a3.82,3.82,0,0,0-3.82-3.82H19V19.59h6.59a5.51,5.51,0,0,1,5.51,5.51v.56A4.75,4.75,0,0,1,26.3,30.41Z"/><path class="cls-5" d="M19.32,21.28h1.51a2.7,2.7,0,0,0-1.44-1.69H19v1.29Z"/><path class="cls-6" d="M20.64,30.41H19V22.07A1.11,1.11,0,0,0,17.84,21h-.28a1.49,1.49,0,0,0-1.49,1.49v8H14.39v-8a3.18,3.18,0,0,1,3.17-3.18h.28a2.81,2.81,0,0,1,2.8,2.8Z"/><path class="cls-7" d="M14.91,20.71l-.14.84,1.3,2.18V22.45a1.44,1.44,0,0,1,.29-.87,3.69,3.69,0,0,0-.93-1.47A3.3,3.3,0,0,0,14.91,20.71Z"/><path class="cls-6" d="M16.07,30.41H14.39V22.07A1.11,1.11,0,0,0,13.28,21H13a1.49,1.49,0,0,0-1.49,1.49v8H9.82v-8A3.19,3.19,0,0,1,13,19.27h.28a2.8,2.8,0,0,1,2.79,2.8Z"/><path class="cls-2" d="M27.18,23.4H21.81a.23.23,0,0,1-.23-.23.23.23,0,0,1,.23-.24h5.37a.23.23,0,0,1,.23.24A.23.23,0,0,1,27.18,23.4Z"/><path class="cls-2" d="M27.18,26.75H21.81a.23.23,0,0,1-.23-.24.23.23,0,0,1,.23-.23h5.37a.23.23,0,0,1,.23.23A.23.23,0,0,1,27.18,26.75Z"/><path class="cls-2" d="M27.18,25.08H21.81a.24.24,0,0,1,0-.48h5.37a.24.24,0,0,1,0,.48Z"/><polygon class="cls-5" points="20.83 28.72 20.64 30.41 20.64 28.72 20.83 28.72"/></svg>