<?xml version="1.0" standalone="no"?>
<!DOCTYPE svg PUBLIC "-//W3C//DTD SVG 20010904//EN"
 "http://www.w3.org/TR/2001/REC-SVG-20010904/DTD/svg10.dtd">
<svg version="1.0" xmlns="http://www.w3.org/2000/svg"
 width="1442.000000pt" height="646.000000pt" viewBox="0 0 1442.000000 646.000000"
 preserveAspectRatio="xMidYMid meet">

<g transform="translate(0.000000,646.000000) scale(0.100000,-0.100000)"
fill="#213a8f" stroke="none">
<path d="M1335 4608 c-626 -1014 -1181 -1910 -1232 -1993 l-93 -150 0 -1227 0
-1228 3227 0 3226 0 2466 471 c1356 259 3143 600 3971 758 l1505 288 3 2461 2
2462 -5968 0 -5969 0 -1138 -1842z m8490 992 c368 -42 660 -231 805 -520 67
-134 97 -251 107 -426 l6 -114 -331 0 -332 0 0 63 c0 173 -82 313 -226 383
-64 32 -85 37 -167 42 -234 12 -399 -108 -438 -320 -30 -164 46 -315 197 -395
33 -17 203 -76 379 -132 330 -105 456 -157 566 -232 183 -123 307 -312 356
-539 26 -125 24 -382 -5 -507 -107 -465 -457 -746 -974 -779 -378 -24 -757
128 -957 383 -130 166 -201 365 -204 573 l-2 115 325 0 325 0 6 -90 c8 -121
36 -190 106 -265 126 -137 345 -176 518 -94 152 71 246 264 215 441 -27 159
-124 256 -315 316 -27 9 -124 39 -215 67 -281 88 -367 118 -453 161 -232 117
-394 285 -470 489 -49 130 -62 213 -61 385 1 139 4 173 28 260 50 190 136 337
274 466 227 213 567 310 937 269z m2760 0 c388 -44 692 -242 840 -545 66 -135
86 -223 92 -397 l5 -148 -324 0 -324 0 -11 105 c-13 126 -48 209 -119 285
-112 120 -322 161 -507 99 -140 -47 -234 -149 -272 -296 -23 -87 -22 -1591 0
-1678 65 -250 323 -377 605 -298 137 38 234 138 278 288 10 34 16 119 19 263
l5 212 -211 0 -211 0 0 270 0 270 535 0 536 0 -3 -552 c-4 -539 -4 -555 -26
-633 -103 -362 -384 -609 -794 -697 -148 -31 -418 -31 -565 0 -428 92 -706
339 -810 722 -17 60 -18 135 -18 995 0 881 1 934 19 1000 112 415 459 686 946
738 75 8 229 6 315 -3z m-8542 -612 c182 -517 202 -568 222 -568 17 0 26 10
38 43 25 66 387 1089 387 1093 0 2 144 4 320 4 l320 0 0 -1695 0 -1695 -305 0
-305 0 0 1055 c0 580 -3 1055 -7 1055 -5 0 -73 -179 -152 -398 -80 -218 -151
-410 -158 -425 l-14 -28 -126 3 -126 3 -127 345 c-69 190 -139 380 -154 423
-15 42 -32 77 -37 77 -5 0 -9 -438 -9 -1055 l0 -1055 -305 0 -305 0 0 1688 c0
929 3 1692 7 1695 4 4 148 6 321 5 l314 -3 201 -567z m3256 548 c193 -45 341
-120 463 -235 164 -154 258 -336 293 -568 22 -144 22 -1602 0 -1746 -43 -284
-188 -515 -418 -665 -82 -54 -164 -89 -284 -124 -77 -22 -88 -22 -750 -26
l-673 -3 0 1689 c0 929 3 1692 7 1696 5 4 296 6 648 3 559 -3 649 -6 714 -21z"/>
<path d="M6590 3861 l0 -1111 210 0 c117 0 232 5 262 11 173 37 303 165 338
332 7 37 10 286 8 798 l-3 744 -22 55 c-51 123 -131 203 -253 252 -50 21 -75
23 -297 26 l-243 4 0 -1111z"/>
</g>
</svg>
