<svg width="200" height="64" viewBox="0 0 200 64" fill="none" xmlns="http://www.w3.org/2000/svg">
<path d="M87.058 38.552H83.2V27.8H83.116L78.854 38.38H76.348L72.098 27.8H72V38.558H68.146V21.324H73.2L77.554 32.4H77.65L82 21.324H87.062L87.058 38.552Z" fill="#3D3DD8"/>
<path d="M102.666 25.55V38.55H98.5601V36.094H98.4761C97.8548 37.898 96.5928 38.8 94.6901 38.8C93.2741 38.8 92.1261 38.362 91.2461 37.486C90.3661 36.61 89.9261 35.416 89.9261 33.904V25.55H94.1661V32.988C94.1661 33.752 94.3528 34.3373 94.7261 34.744C94.9287 34.9501 95.1732 35.1103 95.443 35.2138C95.7128 35.3173 96.0017 35.3617 96.2901 35.344C96.5841 35.3563 96.8771 35.3026 97.1477 35.1871C97.4183 35.0715 97.6597 34.8969 97.8541 34.676C98.2634 34.1766 98.4723 33.5429 98.4401 32.898V25.55H102.666Z" fill="#3D3DD8"/>
<path d="M111.564 43.448C109.741 43.448 108.267 43.074 107.14 42.326C106.013 41.578 105.391 40.6027 105.272 39.4H109.368C109.427 39.5992 109.527 39.7841 109.66 39.9434C109.794 40.1027 109.958 40.2329 110.144 40.326C110.61 40.5733 111.133 40.6947 111.66 40.678C112.46 40.678 113.071 40.4833 113.492 40.094C113.706 39.8927 113.874 39.6474 113.985 39.375C114.095 39.1027 114.145 38.8096 114.132 38.516V36.128H114.048C113.769 36.84 113.252 37.4331 112.584 37.806C111.829 38.2436 110.968 38.465 110.096 38.446C108.52 38.446 107.264 37.8767 106.328 36.738C105.392 35.5993 104.925 34.0233 104.928 32.01C104.928 29.9327 105.395 28.3047 106.328 27.126C107.261 25.9474 108.541 25.358 110.168 25.358C111.026 25.3398 111.87 25.5795 112.59 26.046C113.262 26.4774 113.784 27.1062 114.084 27.846H114.166V25.55H118.366V38.41C118.385 39.1291 118.223 39.8415 117.897 40.4826C117.571 41.1238 117.09 41.6735 116.498 42.082C115.247 42.9927 113.603 43.448 111.564 43.448ZM111.696 35.318C112.043 35.3326 112.388 35.2625 112.702 35.1137C113.015 34.9649 113.288 34.7419 113.496 34.464C113.929 33.8947 114.147 33.0887 114.148 32.046C114.149 31.0033 113.93 30.1814 113.49 29.58C113.285 29.2978 113.016 29.0682 112.705 28.9098C112.395 28.7515 112.051 28.6689 111.702 28.6689C111.353 28.6689 111.009 28.7515 110.699 28.9098C110.388 29.0682 110.119 29.2978 109.914 29.58C109.481 30.184 109.264 31.008 109.264 32.052C109.264 33.096 109.477 33.902 109.902 34.47C110.109 34.747 110.381 34.9691 110.694 35.1169C111.006 35.2647 111.351 35.3337 111.696 35.318Z" fill="#3D3DD8"/>
<path d="M124.892 38.744C123.755 38.7761 122.647 38.38 121.788 37.634C121.379 37.2855 121.054 36.8503 120.835 36.36C120.616 35.8697 120.509 35.3368 120.522 34.8C120.522 33.5893 120.971 32.646 121.87 31.97C122.769 31.294 124.067 30.904 125.764 30.8L128.808 30.62V29.88C128.82 29.6569 128.781 29.4339 128.694 29.228C128.607 29.0222 128.474 28.8388 128.306 28.692C127.922 28.393 127.442 28.2425 126.956 28.268C126.471 28.2475 125.992 28.3835 125.59 28.656C125.423 28.7713 125.281 28.9194 125.174 29.0914C125.066 29.2634 124.995 29.4555 124.964 29.656H121.154C121.169 29.0238 121.331 28.4037 121.628 27.8451C121.924 27.2865 122.347 26.8047 122.862 26.438C123.937 25.638 125.373 25.238 127.172 25.238C128.905 25.238 130.302 25.642 131.362 26.45C131.866 26.8106 132.274 27.2891 132.551 27.8438C132.828 28.3984 132.965 29.0123 132.95 29.632V38.55H128.832V36.7H128.748C128.391 37.3507 127.84 37.8742 127.172 38.198C126.467 38.5604 125.685 38.7477 124.892 38.744ZM126.4 35.83C127.013 35.8458 127.613 35.6525 128.102 35.282C128.324 35.123 128.505 34.9127 128.628 34.669C128.752 34.4252 128.815 34.1553 128.812 33.882V32.986L126.448 33.142C125.989 33.1499 125.543 33.2979 125.17 33.566C125.026 33.6756 124.909 33.8176 124.831 33.9806C124.752 34.1436 124.712 34.3229 124.716 34.504C124.71 34.6901 124.748 34.875 124.828 35.0431C124.908 35.2112 125.027 35.3576 125.176 35.47C125.532 35.7246 125.963 35.8514 126.4 35.83Z" fill="#3D3DD8"/>
<path d="M135.652 38.552V21.324H139.89V38.552H135.652Z" fill="#3D3DD8"/>
<path d="M146.292 23.902C146.088 24.0994 145.847 24.2541 145.582 24.3571C145.318 24.4602 145.036 24.5094 144.752 24.502C144.467 24.5089 144.184 24.4594 143.919 24.3564C143.654 24.2535 143.411 24.099 143.206 23.902C143.008 23.711 142.85 23.482 142.743 23.2287C142.635 22.9755 142.58 22.7032 142.58 22.428C142.58 22.1528 142.635 21.8805 142.743 21.6273C142.85 21.374 143.008 21.145 143.206 20.954C143.629 20.571 144.179 20.3589 144.749 20.3589C145.319 20.3589 145.869 20.571 146.292 20.954C146.494 21.1417 146.654 21.3702 146.761 21.6243C146.868 21.8784 146.92 22.1523 146.914 22.428C146.919 22.7035 146.866 22.977 146.759 23.2309C146.652 23.4848 146.493 23.7134 146.292 23.902ZM142.638 38.552V25.552H146.866V38.552H142.638Z" fill="#3D3DD8"/>
<path d="M149.542 38.552V25.552H153.662V28.06H153.746C153.972 27.2542 154.459 26.5463 155.131 26.0471C155.803 25.548 156.621 25.2859 157.458 25.302C158.43 25.302 159.23 25.5427 159.858 26.024C160.504 26.5319 160.938 27.2619 161.076 28.072H161.16C161.404 27.2507 161.926 26.5396 162.636 26.06C163.382 25.5488 164.268 25.2838 165.172 25.302C166.445 25.302 167.476 25.71 168.264 26.526C169.052 27.342 169.446 28.4087 169.446 29.726V38.548H165.2V30.8C165.2 29.4227 164.591 28.734 163.374 28.734C163.119 28.7221 162.864 28.7675 162.628 28.8668C162.392 28.9662 162.182 29.1169 162.012 29.308C161.661 29.7374 161.482 30.282 161.51 30.836V38.548H157.472V30.748C157.472 30.096 157.317 29.5967 157.006 29.25C156.834 29.0715 156.625 28.9326 156.394 28.8428C156.163 28.753 155.915 28.7145 155.668 28.73C155.41 28.7193 155.153 28.7663 154.916 28.8677C154.678 28.9691 154.467 29.1223 154.296 29.316C153.938 29.747 153.755 30.2965 153.782 30.856V38.544L149.542 38.552Z" fill="#3D3DD8"/>
<path d="M30.554 29.334V32.734C34.198 33.098 37.154 34.118 40.12 35.71C38.058 32.784 34.756 30.494 30.554 29.334Z" fill="#3D3DD8"/>
<path d="M46.88 38.462H55.974V35.138C51.538 36.034 48.68 37.318 46.88 38.462Z" fill="#3D3DD8"/>
<path d="M40.21 38.462C38.334 37.262 35.312 35.926 30.554 35.028V38.462H40.21Z" fill="#3D3DD8"/>
<path d="M41.71 33.924C42.4256 34.893 43.0408 35.9324 43.546 37.026C44.0495 35.932 44.6641 34.8925 45.38 33.924C47.214 31.44 50.46 28.458 55.9799 26.984V21.264C53.8139 21.29 44.58 20.626 43.27 28.57C41.962 20.626 32.726 21.29 30.56 21.264V26.842C36.412 28.26 39.816 31.358 41.71 33.924Z" fill="#3D3DD8"/>
<path d="M46.97 35.71C49.8 34.2 52.586 33.2 55.974 32.8V29.498C52.04 30.702 48.94 32.916 46.97 35.71Z" fill="#3D3DD8"/>
</svg>
