<svg width="142" height="24" viewBox="0 0 142 24" fill="none" xmlns="http://www.w3.org/2000/svg">
<path d="M58.058 18.552H54.2V7.80001H54.116L49.854 18.38H47.348L43.098 7.80001H43V18.558H39.146V1.32401H44.2L48.554 12.4H48.65L53 1.32401H58.062L58.058 18.552Z" fill="#3D3DD8"/>
<path d="M73.6661 5.54999V18.55H69.5601V16.094H69.4761C68.8548 17.898 67.5928 18.8 65.6901 18.8C64.2741 18.8 63.1261 18.362 62.2461 17.486C61.3661 16.61 60.9261 15.416 60.9261 13.904V5.54999H65.1661V12.988C65.1661 13.752 65.3528 14.3373 65.7261 14.744C65.9287 14.9501 66.1732 15.1103 66.443 15.2138C66.7128 15.3173 67.0017 15.3617 67.2901 15.344C67.5841 15.3563 67.8771 15.3026 68.1477 15.1871C68.4183 15.0715 68.6597 14.8969 68.8541 14.676C69.2634 14.1766 69.4723 13.5429 69.4401 12.898V5.54999H73.6661Z" fill="#3D3DD8"/>
<path d="M82.5641 23.448C80.7414 23.448 79.2667 23.074 78.1401 22.326C77.0134 21.578 76.3907 20.6027 76.272 19.4H80.3681C80.4272 19.5992 80.5266 19.7841 80.6601 19.9434C80.7936 20.1027 80.9583 20.2329 81.144 20.326C81.6101 20.5733 82.1327 20.6947 82.66 20.678C83.46 20.678 84.0707 20.4833 84.4921 20.094C84.7062 19.8927 84.8743 19.6474 84.9848 19.375C85.0952 19.1027 85.1455 18.8096 85.132 18.516V16.128H85.048C84.7691 16.84 84.2516 17.4331 83.584 17.806C82.8292 18.2436 81.9684 18.465 81.096 18.446C79.52 18.446 78.2641 17.8767 77.3281 16.738C76.3921 15.5993 75.9254 14.0233 75.9281 12.01C75.9281 9.93268 76.3947 8.30468 77.3281 7.12602C78.2614 5.94735 79.5414 5.35802 81.1681 5.35802C82.026 5.33982 82.8698 5.57949 83.5901 6.04602C84.2619 6.47744 84.7838 7.1062 85.084 7.84602H85.1661V5.55002H89.3661V18.41C89.3845 19.1291 89.2234 19.8415 88.8972 20.4826C88.5711 21.1238 88.0902 21.6735 87.498 22.082C86.2474 22.9927 84.6027 23.448 82.5641 23.448ZM82.696 15.318C83.0429 15.3326 83.3881 15.2625 83.7017 15.1137C84.0154 14.9649 84.288 14.7419 84.496 14.464C84.9294 13.8947 85.1467 13.0887 85.148 12.046C85.1494 11.0033 84.9301 10.1814 84.4901 9.58002C84.2851 9.29784 84.0162 9.06817 83.7054 8.90982C83.3947 8.75147 83.0508 8.66892 82.7021 8.66892C82.3533 8.66892 82.0094 8.75147 81.6987 8.90982C81.3879 9.06817 81.119 9.29784 80.9141 9.58002C80.4807 10.184 80.2641 11.008 80.2641 12.052C80.2641 13.096 80.4767 13.902 80.9021 14.47C81.1092 14.747 81.381 14.9691 81.6937 15.1169C82.0064 15.2647 82.3505 15.3337 82.696 15.318Z" fill="#3D3DD8"/>
<path d="M95.892 18.744C94.7547 18.7761 93.6469 18.38 92.788 17.634C92.3794 17.2855 92.0538 16.8503 91.8348 16.36C91.6158 15.8697 91.5089 15.3368 91.522 14.8C91.522 13.5893 91.9713 12.646 92.8699 11.97C93.7686 11.294 95.0666 10.904 96.764 10.8L99.8079 10.62V9.88C99.8201 9.65685 99.7812 9.43387 99.6942 9.22801C99.6072 9.02215 99.4744 8.83883 99.306 8.692C98.9215 8.39301 98.4423 8.24249 97.956 8.268C97.4708 8.24749 96.9919 8.38352 96.59 8.656C96.423 8.77129 96.2814 8.91945 96.1738 9.0914C96.0661 9.26335 95.9947 9.45549 95.964 9.65601H92.154C92.1689 9.02377 92.3311 8.40372 92.6276 7.84511C92.9241 7.28651 93.3467 6.80472 93.862 6.438C94.9366 5.63801 96.3733 5.23801 98.1719 5.23801C99.9053 5.23801 101.302 5.64201 102.362 6.45C102.866 6.81065 103.274 7.28914 103.551 7.84377C103.828 8.3984 103.965 9.01231 103.95 9.63199V18.55H99.8319V16.7H99.748C99.3907 17.3507 98.84 17.8742 98.1719 18.198C97.4668 18.5604 96.6848 18.7477 95.892 18.744ZM97.4 15.83C98.013 15.8458 98.6133 15.6525 99.102 15.282C99.3242 15.123 99.5048 14.9127 99.6284 14.669C99.7521 14.4252 99.815 14.1553 99.812 13.882V12.986L97.448 13.142C96.9887 13.1499 96.5429 13.2979 96.1699 13.566C96.0258 13.6756 95.9095 13.8176 95.8306 13.9806C95.7517 14.1436 95.7124 14.3229 95.716 14.504C95.7096 14.6901 95.7481 14.875 95.8282 15.0431C95.9082 15.2112 96.0275 15.3576 96.176 15.47C96.5317 15.7246 96.963 15.8514 97.4 15.83Z" fill="#3D3DD8"/>
<path d="M106.652 18.552V1.32401H110.89V18.552H106.652Z" fill="#3D3DD8"/>
<path d="M117.292 3.902C117.088 4.09938 116.847 4.25411 116.582 4.35713C116.318 4.46016 116.036 4.50941 115.752 4.502C115.467 4.50887 115.184 4.4594 114.919 4.35643C114.654 4.25345 114.411 4.09901 114.206 3.902C114.008 3.71097 113.85 3.48199 113.743 3.22874C113.635 2.97548 113.58 2.70315 113.58 2.428C113.58 2.15284 113.635 1.8805 113.743 1.62725C113.85 1.374 114.008 1.14502 114.206 0.953992C114.629 0.571022 115.179 0.358917 115.749 0.358917C116.319 0.358917 116.869 0.571022 117.292 0.953992C117.494 1.14173 117.654 1.37018 117.761 1.62427C117.868 1.87835 117.92 2.15229 117.914 2.428C117.919 2.70351 117.866 2.97702 117.759 3.2309C117.652 3.48478 117.493 3.7134 117.292 3.902ZM113.638 18.552V5.552H117.866V18.552H113.638Z" fill="#3D3DD8"/>
<path d="M120.542 18.552V5.552H124.662V8.05999H124.746C124.972 7.25421 125.459 6.54626 126.131 6.04713C126.803 5.548 127.621 5.28593 128.458 5.302C129.43 5.302 130.23 5.54266 130.858 6.024C131.504 6.53192 131.938 7.26186 132.076 8.07199H132.16C132.404 7.25072 132.926 6.53964 133.636 6.05999C134.382 5.54882 135.268 5.28377 136.172 5.302C137.445 5.302 138.476 5.71 139.264 6.526C140.052 7.342 140.446 8.40866 140.446 9.726V18.548H136.2V10.8C136.2 9.42266 135.591 8.734 134.374 8.734C134.119 8.72215 133.864 8.76753 133.628 8.86684C133.392 8.96616 133.182 9.11688 133.012 9.308C132.661 9.73744 132.482 10.282 132.51 10.836V18.548H128.472V10.748C128.472 10.096 128.317 9.59666 128.006 9.25C127.834 9.07153 127.625 8.93259 127.394 8.8428C127.163 8.75301 126.915 8.71452 126.668 8.73C126.41 8.71926 126.153 8.76631 125.916 8.8677C125.678 8.96909 125.467 9.12225 125.296 9.31599C124.938 9.74699 124.755 10.2965 124.782 10.856V18.544L120.542 18.552Z" fill="#3D3DD8"/>
<path d="M1.55399 9.33398V12.734C5.19799 13.098 8.15399 14.118 11.12 15.71C9.05799 12.784 5.75599 10.494 1.55399 9.33398Z" fill="#3D3DD8"/>
<path d="M17.88 18.462H26.974V15.138C22.538 16.034 19.68 17.318 17.88 18.462Z" fill="#3D3DD8"/>
<path d="M11.21 18.462C9.33399 17.262 6.31199 15.926 1.55399 15.028V18.462H11.21Z" fill="#3D3DD8"/>
<path d="M12.71 13.924C13.4256 14.893 14.0408 15.9324 14.546 17.026C15.0495 15.932 15.6641 14.8925 16.38 13.924C18.214 11.44 21.46 8.458 26.9799 6.98399V1.26399C24.8139 1.28999 15.58 0.625987 14.27 8.56999C12.962 0.625987 3.72597 1.28999 1.55997 1.26399V6.84199C7.41196 8.25999 10.816 11.358 12.71 13.924Z" fill="#3D3DD8"/>
<path d="M17.97 15.71C20.8 14.2 23.586 13.2 26.974 12.8V9.49799C23.04 10.702 19.94 12.916 17.97 15.71Z" fill="#3D3DD8"/>
</svg>
